<?xml version="1.0" encoding="UTF-8"?> <svg xmlns="http://www.w3.org/2000/svg" xmlns:xlink="http://www.w3.org/1999/xlink" version="1.1" id="Layer_1" x="0px" y="0px" viewBox="0 0 333.1 327.21" style="enable-background:new 0 0 333.1 327.21;" xml:space="preserve"> <style type="text/css"> .st0{fill:#3C4B51;} .st1{fill:#1C89C8;} .st2{fill:#096738;} .st3{fill:#252122;} .st4{fill:#BAB9B9;} .st5{fill:#E9AB54;} .st6{fill:#FDFDFD;} </style> <path class="st0" d="M296.45,148.75c-0.52-12.21-3.18-24.01-7.65-35.3c-18.48-46.68-52.09-75.76-101.7-84.51 C115.33,16.29,47.76,64.6,35.65,136.34c-2.03,12.01-2.26,24.09-1.16,36.2c0.15,0.5,0.42,1.01,0.44,1.52 c0.22,5.74,1.76,11.25,2.89,16.83c0.8,3.93,2.55,7.61,3.13,11.6c-4.82,0.19-4.85,0.2-6.42-4.14C9.05,128.21,44.03,48.1,117.37,22 c72.69-25.87,148.85,12.55,174.35,80.39c11.72,31.19,12.18,62.69,1.27,94.26c-0.53,1.52-1.02,3.06-1.53,4.59 c-0.26,0.76-0.43,1.66-1.6,1.24c-0.05-1.38,0.54-2.61,0.94-3.88c3.86-12.32,6.25-24.88,6.03-37.85c0.29-1.36,0.22-2.72,0.06-4.08 C296.85,154.03,297.22,151.36,296.45,148.75z"></path> <path class="st1" d="M296.45,148.75c0.77,2.61,0.4,5.28,0.45,7.92c-29.4,12.88-57.88,27.51-84.87,44.95c-0.94,0.61-1.86,0.94-3,0.94 c-35.56-0.02-71.13-0.01-106.69-0.02c-0.23,0-0.47-0.09-1.46-0.28c6.29-2.96,11.95-5.73,17.69-8.31 c38.79-17.49,79.26-29.55,121.06-37.26c0.83-0.15,1.81-0.05,2.41-0.9c0.48,0.03,0.96,0.05,1.45,0.08c0.44-0.26,0.96-0.82,1.31-0.73 c2.94,0.8,5.61-0.51,8.38-0.95c7.08-0.97,14.16-1.94,21.23-2.91C281.76,150.44,289.1,149.59,296.45,148.75z"></path> <path class="st2" d="M40.95,202.49c-0.58-3.99-2.33-7.67-3.13-11.6c-1.13-5.58-2.67-11.09-2.89-16.83 c-0.02-0.51-0.29-1.01-0.44-1.52c4.46-1.68,8.71-3.91,13.38-5.03c1.34,3.16,1.91,3.42,4.63,2.1c-0.87-0.94-2.28-1.6-1.78-3.26 c1.98-0.5,3.96-1,5.93-1.49c0.89,0.07,1.4,0.73,1.88,1.32c1.21,1.49,2.52,1.59,4.04,0.55c-0.15-0.79-0.92-0.79-1.35-1.2 c-0.45-0.43-0.92-0.82-1.01-1.48c6.35-1.57,12.81-2.51,19.31-3.11c0.02,0.53,0.06,1.06,0.07,1.59c0.04,3.2,0.39,3.44,3.46,2.35 c-1.39-2.15-1.39-2.15-0.84-4.28c0.56-0.06,1.12-0.11,1.68-0.17c0.17,0.5,0.4,0.99,0.5,1.5c0.64,3.32,1.9,3.84,5.07,2.07 c-0.23-0.88-1.14-1.04-1.67-1.59c-1.14-1.17-0.73-1.84,0.77-2.06c2.74-0.59,5.51-0.36,8.28-0.37c-0.31,2.12-0.69,4.22-1.44,6.24 c-0.26,0.7-0.29,1.43,0.34,1.98c0.61,0.54,1.36,0.56,2,0.16c2.47-1.56,5.23-2.73,6.76-5.52c0.63-1.15,1.62-2.12,2.51-3.12 c0.49-0.55,1.15-0.95,1.91-0.64c0.8,0.32,0.75,1.08,0.84,1.81c0.36,2.99-0.98,5.32-3.09,7.48c1.84,0.54,3.03,0.38,3.42-1.52 c0.45-2.23,2.1-3.93,2.78-6.06c0.56-1.76,2.18-1.17,3.06-0.85c1.06,0.38,1.04,6.33,0.18,7.46c-0.31,0.4-0.97,0.72-0.68,1.32 c0.34,0.71,1.11,0.39,1.69,0.4c1.24,0.02,1.81-0.71,1.74-1.88c-0.14-2.35,0.51-4.61,0.68-6.92c6.41,0.18,12.76,0.98,19.12,1.64 c0.93,1.73,0.37,3.32-0.67,4.88c2.05,0.42,3.08-0.13,2.96-2.22c-0.05-0.77,0.15-1.56,0.23-2.35c1.27,0.12,2.52,0.66,3.83,0.26 c0.26,1.14,0.33,2.27-0.04,3.4c-0.23,0.72-0.4,1.48,0.68,1.58c0.89,0.08,1.66-0.31,1.68-1.27c0.02-1.04-0.24-2.08-0.37-3.12 c9.19,1.38,18.32,3.06,27.65,5.21c-1.23,1.06-2.59,1.18-3.81,1.58c-26.57,8.69-52.5,18.95-77.34,31.84 c-0.97,0.5-1.93,0.81-3.06,0.81C73.91,202.52,57.43,202.51,40.95,202.49z"></path> <path class="st2" d="M296.84,160.75c0.22,12.97-2.17,25.53-6.03,37.85c-0.4,1.28-0.99,2.5-0.94,3.88c-23.8,0-47.6,0-71.38,0 c-0.19-0.54,0.24-0.69,0.5-0.85C243.93,186.08,269.92,172.52,296.84,160.75z"></path> <path class="st3" d="M88.56,160.35c-1.5,0.22-1.9,0.89-0.77,2.06c0.53,0.55,1.44,0.71,1.67,1.59c-3.17,1.78-4.43,1.25-5.07-2.07 c-0.1-0.51-0.33-1-0.5-1.5c0.07-1.23-0.09-2.39-1.22-4.08c0.48,1.95-0.59,2.96-0.45,4.25c-0.55,2.13-0.55,2.13,0.84,4.28 c-3.06,1.09-3.42,0.85-3.46-2.35c-0.01-0.53-0.05-1.06-0.07-1.59c0.7-2.8-0.5-5.53-0.4-8.57c-4.5,2.57-9.33,2.92-14.31,2.27 c-1.77-0.23-3.55-0.45-5.33-0.58c-1.13-0.09-1.79,0.19-2.08,1.66c-0.66,3.42-0.03,6.19,2.8,8.33c0.09,0.66,0.56,1.06,1.01,1.48 c0.43,0.41,1.2,0.41,1.35,1.2c-1.51,1.04-2.83,0.94-4.04-0.55c-0.48-0.59-0.99-1.26-1.88-1.32c-1.19-2.1-3.42-3.28-4.61-5.61 c-1.43,2.39-1.66,4.69-1.33,7.1c-0.5,1.66,0.91,2.32,1.78,3.26c-2.72,1.32-3.3,1.05-4.63-2.1c0.38-2.36-0.46-4.61-0.65-6.92 c-0.04-0.45-0.28-1.46-1.14-0.66c-1.39,1.31-1.3-0.46-1.24-0.73c0.86-3.94-0.39-7.77-0.45-11.66c1.09,0.11,0.52,1.39,1.56,1.98 c-0.85-3-1.03-5.81-0.95-8.64c-0.29,0.77-0.48,1.53-0.66,2.29c-0.17,0.73,0.3,1.66-0.68,2.12c-0.06-0.89-0.13-1.79-0.19-2.68 c-0.34-5.41,1.29-7.33,6.7-7.19c12.04,0.31,23.7-1.71,35.18-5.16c3.28-0.99,6.39-2.3,9.32-4.08c2.21-1.34,3.66-0.87,5.19,1.21 c1.45,1.96,3.5,3.31,5.39,4.82c0.62,0.5,1.49,0.69,1.3,1.76c-0.19,1.12-0.87,1.7-1.95,1.93c-1.92,0.41-3.84,0.87-5.76,1.29 c-4.67,1.04-6.64,3.4-6.95,8.11c-0.21,3.15-1.01,5.94-4.82,6.4c-0.75,0.09-0.44,0.63-0.45,0.97c-0.03,1.97,0.08,3.95-0.04,5.92 C86.48,160.2,87.43,160.31,88.56,160.35z"></path> <path class="st2" d="M243.49,155.87c-0.48-0.03-0.96-0.05-1.45-0.08c-5.14-0.19-10.1,1.09-15.11,1.87 c-15.19,2.37-30.29,5.23-45.15,9.22c-0.59,0.16-1.23,0.11-2.48,0.2c3.92-1.91,7.28-3.52,10.62-5.18c1.04-0.52,2.09-1.08,2.53-2.28 c2.32-6.28,6.48-11.04,12.03-14.67c0.94-0.23,1.88-0.45,2.18-1.58c0.1-0.05,0.2-0.06,0.31-0.02c3.27-0.37,6.4-1.55,9.72-1.63 c7.09-0.16,13.54,2.04,19.6,5.51c1.03,0.59,1.79,0.89,2.9,0.23c7.99-4.76,16.58-6.35,25.75-4.69c0.84,0.81,1.89,1.18,3,1.43 c1.2,0.81,2.4,1.61,3.61,2.42c0.96,1.55,1.91,3.11,2.87,4.66c-7.08,0.97-14.16,1.94-21.23,2.91 C249.84,154.12,246.56,154.39,243.49,155.87z"></path> <path class="st3" d="M141.18,162.28c-0.08,0.78-0.28,1.57-0.23,2.35c0.12,2.09-0.9,2.64-2.96,2.22c1.05-1.56,1.61-3.15,0.67-4.88 c-0.63-2.42-1.34-4.82-1.84-7.26c-0.25-1.24-0.76-1.48-1.77-0.97c-3.26,1.64-6.65,1.59-10.2,1.25c-5.17-0.49-5.68,0.18-5.31,5.34 c-0.17,2.31-0.82,4.57-0.68,6.92c0.07,1.16-0.5,1.9-1.74,1.88c-0.58-0.01-1.35,0.31-1.69-0.4c-0.29-0.6,0.37-0.91,0.68-1.32 c0.86-1.13,0.88-7.08-0.18-7.46c-0.89-0.32-2.5-0.91-3.06,0.85c-0.69,2.14-2.33,3.83-2.78,6.06c-0.39,1.9-1.58,2.06-3.42,1.52 c2.11-2.15,3.45-4.48,3.09-7.48c-0.09-0.73-0.05-1.49-0.84-1.81c-0.77-0.31-1.43,0.09-1.91,0.64c-0.88,1-1.87,1.97-2.51,3.12 c-1.53,2.78-4.29,3.95-6.76,5.52c-0.63,0.4-1.39,0.38-2-0.16c-0.62-0.56-0.59-1.28-0.34-1.98c0.74-2.02,1.12-4.12,1.44-6.24 c0.84-0.8,0.74-1.99,1.2-2.92c0.38-0.76-0.16-3.21,2.18-1.36c0.69,0.55,1.43-0.86,1.74-1.61c1.13-2.72,2.26-5.46,3.16-8.26 c0.91-2.85,2.69-4.76,5.32-6.04c2.93-1.43,6.01-2.28,9.25-2.54c5.96-0.48,11.92-1.2,17.9-1.33c7.28-0.15,7.51,0.24,8.57,7.48 c0.32,2.21,0.66,4.44,0.66,6.67c0,1.96,2.06,2.92,2.02,4.82c-0.84,0.51-1.46-0.77-2.3-0.11c0.97,2.7,0.05,5.55,0.43,8.35 c0.13,1.04,0.39,2.08,0.37,3.12c-0.01,0.96-0.79,1.35-1.68,1.27c-1.08-0.1-0.91-0.86-0.68-1.58c0.37-1.13,0.3-2.26,0.04-3.4 c-0.55-2.15-1.53-4.07-2.97-5.75c-0.05-0.06-0.13-0.11-0.14-0.18c-0.02-0.26-0.08-0.3-0.15-0.09c-0.01,0.03,0.22,0.14,0.34,0.22 C141.79,158.59,141.48,160.43,141.18,162.28z M144.54,150.08c0.9-2.96,0.93-5.87-0.47-8.68 C144.22,144.29,144.38,147.18,144.54,150.08z"></path> <path class="st3" d="M264.94,142.78c-9.17-1.66-17.76-0.07-25.75,4.69c-1.11,0.66-1.87,0.36-2.9-0.23 c-6.06-3.47-12.51-5.67-19.6-5.51c-3.32,0.08-6.45,1.26-9.72,1.63c0.25-1.15-0.17-2.77,1.86-2.67c1.14,0.09,1.57-0.47,1.53-1.57 c-0.06-1.67-0.06-3.34-0.09-5.01c0.23-0.96,1.74-0.92,1.63-2.23c-0.08-0.98,0.71-0.75,1.34-0.68c1.42,0.16,2.85,0.3,4.28,0.43 c1.06,0.1,2.22-0.04,2.13,1.63c-0.04,0.65,0.54,0.98,1.12,0.74c0.7-0.3-0.04-0.68-0.08-1.04c-0.24-2.5,0.8-3.61,3.36-3.14 c1.58,0.29,2.62-0.13,2.41-2.03c-0.16-1.42,0.6-1.91,1.91-1.85c1.76,0.08,2.29-0.91,2.31-2.53c0.06-4.93,0.19-9.85,0.32-14.77 c0.02-0.81-0.34-2,1.14-1.87c1.28,0.11,0.8,1.2,0.8,1.89c0.05,5.01-0.12,10.04,0.12,15.04c0.11,2.31,1.39,4.55,0.13,6.91 c-0.23,0.43,0.2,0.86,0.74,0.8c1.98-0.22,2.11,0.63,1.7,2.33c-0.31,1.31,0.11,2.7,2.69,3.05c0-7.14,0-14.16,0-21.17 c0-1.08,0.03-2.15,0.02-3.23c-0.01-0.6,0.14-1.08,0.82-1.15c0.81-0.09,1.13,0.38,1.16,1.11c0.02,0.63,0.01,1.25,0.02,1.88 c0.03,6.99,0.05,13.98,0.1,20.97c0,0.85,0.09,1.7,0.44,2.56c1.42-3.76,2.02-7.67,1.43-11.58c-0.35-2.29,0.4-2.77,2.37-2.99 c2.24-0.25,4.44-0.25,6.68-0.04c1.57,0.15,2.04,0.71,1.93,2.35c-0.27,4.01-0.52,8.06,0.97,12.43c1.11-2.49,1.08-4.73,0.78-6.92 c-0.28-1.98,0-2.86,2.36-2.78c5.33,0.16,5.33,0.03,5.67,5.34C263.26,136.73,264.15,139.74,264.94,142.78z"></path> <path class="st4" d="M207.96,69.42c0.81,2.17,1.55,4.13,2.29,6.1c0.33-0.14,0.44-0.15,0.49-0.21c2.17-2.64,2.22-2.66,3.62,0.62 c0.61,1.42,1.67,2.4,2.93,3.02c2.33,1.14,3.06,3.95,5.45,4.96c0.25,0.11,0.33,0.45,0.05,0.64c-2.69,1.85-0.04,2.83,0.85,3.43 c2.7,1.8,3.37,4.75,4.72,7.31c0.38,0.72,0.35,1.61-0.27,2.27c-0.85,0.9-1.5-0.02-2.07-0.41c-3.13-2.14-6.85-3.71-7.92-7.93 c-0.25-0.98-1.03-1.34-1.86-0.84c-1.71,1.03-3.01,0.26-4.43-0.63c-1.33-0.83-2.67-1.84-4.47-1.19c-0.7,0.25-1.51-0.08-1.99-0.57 c-2.65-2.73-5.78-5.14-6.97-8.95c-0.59-1.91-1.33-2.59-3.2-1.45c-1.33,0.81-2.69,1-3.74-0.56c-0.31-0.47-0.81-0.66-1.38-0.72 c-1.8-0.2-2.37-1.32-2.25-3.01c0.13-1.9,0.92-3.25,2.86-3.72c0.73-0.18,1.34-0.08,1.9,0.59c1.56,1.86,3.51,1.94,5.57,0.93 c0.86-0.42,1.53-0.58,1.76,0.63c0.3,1.58,0.42,3.69,2.48,3.52c1.86-0.15,3.82-1,4.93-2.88C207.49,70.09,207.68,69.84,207.96,69.42z"></path> <path class="st2" d="M78.69,70.95c-15.24,16.39-22.23,34.69-13.53,56.83c-5.17-3.9-7.59-9.13-8.7-15.05 c-1.3-6.92-0.07-13.55,2.61-19.96C62.63,84.25,70.78,74.97,78.69,70.95z"></path> <path class="st4" d="M229.44,75.54c2.3,0.49,4.32,0.71,5.68,3.52c1.79,3.67,3.24,7.33,3.92,11.32c0.14,0.83,0.61,1.44,1.03,2.13 c0.9,1.46,1.64,3.01,0.68,4.79c-0.19,0.36-0.21,0.85-0.2,1.27c0.03,0.98,1.43,2.22,0.09,2.81c-0.83,0.36-0.88-1.43-1.58-2.08 c-3.49-3.25-5.3-7.88-9.05-10.95c-1.13-0.92-1.25-2.29-0.88-3.7c0.37-1.4-0.06-2.44-1.43-3.08c-1.33-0.63-2.77-1.37-2.19-3.17 C226.1,76.6,227.61,75.81,229.44,75.54z"></path> <path class="st5" d="M77.45,101.32c-0.48,1.17,0.48,2,0.76,2.98c0.77,2.77,0.45,5.28-1.36,7.56c-0.98,1.24-1.75,1.37-2.91,0.02 c-5.11-5.95-5.32-12.5-0.2-19.52c-0.4,3.31-0.31,6.18,2.67,7.92l-0.02-0.03c0.07,0.66,0.13,1.34,1.11,1.1L77.45,101.32z"></path> <path class="st5" d="M104.96,59.4c-1.28,2.38-1.07,4.67-0.11,7.19c1.57,4.1-0.46,8.42-4.23,10.08c-1.38,0.61-2.06,0.39-2.65-1.03 c-1.77-4.29-1.43-8.27,1.67-11.79c1.52-1.73,3.02-3.54,5.19-4.57L104.96,59.4z"></path> <path class="st5" d="M87.76,74.66c-1.85,3.41,0.27,6.12,1.26,9.01c1.13,3.29,0.24,6.45-2.37,8.63c-1.45,1.2-2.45,1.32-3.55-0.58 c-2.39-4.12-2.42-8.1,0.13-12.1C84.41,77.76,85.59,75.91,87.76,74.66z"></path> <path class="st5" d="M96.12,66.65c-1.47,3.2-0.44,5.61,0.34,8.09c1.36,4.34,0.07,7.78-3.45,9.69c-1.21,0.66-1.91,0.78-2.65-0.76 C87.33,77.3,89.24,70.86,96.12,66.65z"></path> <path class="st5" d="M76.4,100.28c0.31-0.43,0.13-0.86-0.07-1.24C73.29,93,75.67,88.1,79.54,83.5c0.09,0.1,0.19,0.2,0.29,0.29 c-0.6,2.51,0.16,4.71,1.44,6.84c1.83,3.04,2.57,6.21,0.77,9.58c-1.51,2.83-2.18,3.01-4.6,1.11c0,0,0.03,0.03,0.03,0.03 c-0.07-0.67-0.15-1.32-1.11-1.1L76.4,100.28z"></path> <path class="st5" d="M123.71,61.49c-2.04,2.23-3.99,4.56-6.14,6.67c-1.91,1.88-4.4,2.76-7.05,2.97c-1.09,0.09-2.71,0.77-3.22-0.42 c-0.59-1.4-0.71-3.17,0.37-4.63c1.55-2.1,3.54-3.66,6.17-3.94c3.28-0.35,6.59-0.43,9.89-0.63L123.71,61.49z"></path> <path class="st5" d="M108.03,81.61c-4.22,4.45-8.77,7.54-15.79,5.17c3.16-1.43,4.98-3.54,6.22-6.24c0.61-1.32,1.81-0.38,2.58-0.06 C103.28,81.41,105.46,82.39,108.03,81.61z"></path> <path class="st5" d="M86.05,94.97c2.27-1.66,4.12-3.51,4.88-6.16c0.26-0.9,0.96-1.01,1.7-0.76c2.51,0.84,5.06,1.43,7.89,0.85 C97.79,94.26,91.75,96.77,86.05,94.97z"></path> <path class="st5" d="M99.92,78.87c2.84-1.13,4.74-2.73,6-4.98c0.98-1.74,2.17-0.82,3.19-0.29c2.31,1.19,4.61,2.01,7.41,0.61 C113,79.42,105.81,81.46,99.92,78.87z"></path> <path class="st5" d="M89.3,104.34c-2.16,6.93-5.75,9.81-12.65,10.08c2.47-2.35,3.59-4.89,3.75-7.93c0.07-1.36,1.66-0.94,2.44-0.72 C85.09,106.38,87.04,105.89,89.3,104.34z"></path> <path class="st5" d="M94.09,96.5c-2.32,5.63-7.29,8.66-12.91,7.84c1.77-2.14,3.25-4.29,3.58-7.04c0.15-1.26,1.38-1.05,2.18-0.79 C89.29,97.25,91.62,97.37,94.09,96.5z"></path> <path class="st5" d="M75.2,116.37c-1.21,4.37-2.42,8.74-3.63,13.11c-0.13,0.46-0.34,0.88-0.9,0.73c-0.72-0.19-0.6-0.74-0.45-1.28 c1.15-4.3,2.29-8.6,3.42-12.89c0.12-0.44,0.23-0.96,0.79-0.86C75.02,115.28,75.34,115.72,75.2,116.37z"></path> <path class="st3" d="M206.66,143.38c-0.29,1.13-1.24,1.34-2.18,1.58c-0.02-2.24-0.07-4.48-0.06-6.72c0-0.66-0.31-1.67,0.72-1.71 c0.98-0.04,0.82,0.93,0.9,1.63C206.23,139.89,205.51,141.75,206.66,143.38z"></path> <path class="st0" d="M210.27,134.11c0.03,1.67,0.03,3.34,0.09,5.01c0.04,1.11-0.39,1.66-1.53,1.57c0.74-2.48-0.01-5.05,0.43-7.58 C210.06,132.99,209.41,134.33,210.27,134.11z"></path> <path class="st5" d="M43.65,145.29c0.99-0.46,0.51-1.4,0.68-2.12c0.18-0.76,0.37-1.52,0.66-2.29c-0.08,2.83,0.1,5.64,0.95,8.64 c-1.04-0.58-0.47-1.87-1.56-1.98C43.39,147.04,43.61,146.14,43.65,145.29z"></path> <path class="st3" d="M271.54,146.63c-1.2-0.81-2.4-1.61-3.61-2.42c0.91-0.34,2.16-1.23,2.67-0.92 C271.65,143.93,271.84,145.33,271.54,146.63z"></path> <path class="st5" d="M80.18,83.06c0.05-0.22,0.11-0.44,0.16-0.67c0.07,0.04,0.13,0.08,0.2,0.12c-0.13,0.17-0.27,0.33-0.4,0.5 C80.13,83.01,80.18,83.06,80.18,83.06z"></path> <path class="st5" d="M79.54,83.5c0.11-0.3,0.26-0.53,0.63-0.44c0,0-0.04-0.05-0.04-0.05c-0.1,0.26-0.21,0.52-0.31,0.77 C79.73,83.69,79.64,83.6,79.54,83.5z"></path> <path class="st5" d="M123.73,61.51c0.07-0.09,0.15-0.17,0.22-0.26c-0.01,0.06,0,0.14-0.03,0.16c-0.06,0.04-0.14,0.05-0.22,0.07 C123.71,61.49,123.73,61.51,123.73,61.51z"></path> <path class="st5" d="M104.83,59.28c0.1-0.13,0.21-0.26,0.31-0.39c0.37,0.33,0.05,0.41-0.19,0.51 C104.96,59.4,104.83,59.28,104.83,59.28z"></path> <path class="st6" d="M243.49,155.87c3.07-1.48,6.35-1.75,9.69-1.68c-2.78,0.43-5.44,1.74-8.38,0.95 C244.45,155.05,243.93,155.61,243.49,155.87z"></path> <path class="st6" d="M60.22,164.04c-2.84-2.14-3.47-4.92-2.8-8.33c0.29-1.47,0.94-1.75,2.08-1.66c1.78,0.13,3.56,0.35,5.33,0.58 c4.98,0.66,9.81,0.3,14.31-2.27c-0.1,3.04,1.1,5.77,0.4,8.57C73.02,161.54,66.57,162.48,60.22,164.04z"></path> <path class="st6" d="M119.54,160.32c-0.37-5.16,0.14-5.83,5.31-5.34c3.55,0.34,6.94,0.39,10.2-1.25c1.01-0.51,1.51-0.27,1.77,0.97 c0.5,2.44,1.21,4.84,1.84,7.26C132.3,161.3,125.95,160.51,119.54,160.32z"></path> <path class="st6" d="M50.71,166.35c-0.34-2.41-0.1-4.71,1.33-7.1c1.19,2.33,3.42,3.51,4.61,5.61 C54.67,165.35,52.69,165.85,50.71,166.35z"></path> <path class="st6" d="M142.04,156.79c1.44,1.69,2.42,3.61,2.97,5.75c-1.31,0.4-2.55-0.14-3.83-0.26c0.3-1.85,0.61-3.7,0.92-5.54 L142.04,156.79z"></path> <path class="st6" d="M82.21,160.59c-0.14-1.29,0.93-2.29,0.45-4.25c1.13,1.69,1.3,2.85,1.22,4.08 C83.33,160.48,82.77,160.54,82.21,160.59z"></path> <path class="st6" d="M144.54,150.08c-0.16-2.89-0.31-5.79-0.47-8.68C145.47,144.2,145.43,147.11,144.54,150.08z"></path> <path class="st6" d="M142.09,156.74c-0.12-0.07-0.35-0.18-0.34-0.22c0.07-0.21,0.13-0.17,0.15,0.09c0,0.06,0.09,0.12,0.14,0.18 C142.04,156.79,142.09,156.74,142.09,156.74z"></path> <path class="st6" d="M76.37,100.25c0.95-0.22,1.03,0.43,1.11,1.1C76.51,101.59,76.45,100.91,76.37,100.25z"></path> <path class="st6" d="M154.79,294.79c-1.37,0.14-2.4,0.13-2.31-1.82c0.06-1.51,0.4-2.17,1.97-1.95c1.52,0.21,3.74-0.46,3.75,1.97 C158.21,295.14,156.16,294.63,154.79,294.79z"></path> <path class="st6" d="M238.62,295.08c-1.19,0.3-1.46-0.55-1.54-2.14c-0.1-1.96,0.9-2.01,2.29-1.88c1.44,0.13,3.37-0.24,3.37,1.95 C242.75,295.38,240.68,294.83,238.62,295.08z"></path> <path class="st6" d="M50.77,291.17c0.65,1.6,1,2.71,1.54,3.74c0.84,1.6,0.33,1.89-1.32,1.96c-2.14,0.09-2.69-0.43-1.6-2.38 C49.88,293.6,50.18,292.61,50.77,291.17z"></path> <path class="st6" d="M218.5,296.59c0.72-1.78,1.36-3.37,2.02-4.98c0.75,0.29,0.75,0.98,0.97,1.51 C223.18,297.15,223.17,297.15,218.5,296.59z"></path> <g> <path class="st0" d="M66.78,270.24H40.49l-3.65,12.37H13.2l28.16-74.93h25.26l28.16,74.93H70.53L66.78,270.24z M61.98,254.04 l-8.27-26.94l-8.18,26.94H61.98z"></path> <path class="st0" d="M96.16,282.61v-74.93h38.59c7.16,0,12.63,0.61,16.41,1.84c3.78,1.23,6.83,3.5,9.15,6.82 c2.32,3.32,3.48,7.37,3.48,12.14c0,4.16-0.89,7.74-2.66,10.76c-1.77,3.02-4.21,5.46-7.31,7.33c-1.98,1.19-4.69,2.18-8.13,2.96 c2.76,0.92,4.77,1.84,6.03,2.76c0.85,0.61,2.09,1.93,3.7,3.94c1.62,2.01,2.7,3.56,3.24,4.66l11.21,21.71h-26.16l-12.38-22.9 c-1.57-2.96-2.96-4.89-4.19-5.78c-1.67-1.16-3.56-1.74-5.67-1.74h-2.04v30.41H96.16z M119.42,238.04h9.76 c1.06,0,3.1-0.34,6.13-1.02c1.53-0.31,2.79-1.09,3.76-2.35c0.97-1.26,1.46-2.71,1.46-4.34c0-2.42-0.77-4.28-2.3-5.57 c-1.53-1.29-4.41-1.94-8.64-1.94h-10.17V238.04z"></path> <path class="st0" d="M171.31,207.68h34.4c6.78,0,12.26,0.92,16.43,2.76c4.17,1.84,7.62,4.48,10.35,7.92 c2.73,3.44,4.7,7.45,5.93,12.01c1.23,4.57,1.84,9.4,1.84,14.52c0,8.01-0.91,14.22-2.73,18.63c-1.82,4.41-4.35,8.11-7.59,11.09 c-3.24,2.98-6.71,4.97-10.43,5.95c-5.08,1.36-9.68,2.04-13.8,2.04h-34.4V207.68z M194.46,224.65v40.94h5.67 c4.84,0,8.28-0.54,10.33-1.61s3.65-2.95,4.8-5.62c1.16-2.67,1.74-7.01,1.74-13.01c0-7.94-1.3-13.37-3.88-16.3 c-2.59-2.93-6.88-4.4-12.88-4.4H194.46z"></path> <path class="st0" d="M287.71,270.24h-26.29l-3.65,12.37h-23.64l28.16-74.93h25.26l28.16,74.93h-24.25L287.71,270.24z M282.91,254.04l-8.27-26.94l-8.18,26.94H282.91z"></path> </g> <g> <path class="st2" d="M14.74,307.72v-11.66h1.32v10.39h6.36v1.27H14.74z"></path> <path class="st2" d="M31.41,307.72v-11.66h8.58v1.27h-7.26v3.91h6.48v1.29h-6.48v3.93h7.26v1.27H31.41z"></path> <path class="st2" d="M48.02,307.72l4.95-11.66h1.66l4.95,11.66h-1.46l-1.43-3.38h-5.78l-1.43,3.38H48.02z M51.42,303.12h4.76 l-2.38-5.69L51.42,303.12z"></path> <path class="st2" d="M68.33,307.72v-11.66h4.91c0.69,0,1.36,0.13,2,0.4c0.64,0.26,1.21,0.65,1.72,1.15c0.5,0.51,0.9,1.12,1.2,1.83 c0.29,0.72,0.44,1.53,0.44,2.45c0,0.92-0.15,1.73-0.44,2.45c-0.29,0.72-0.69,1.33-1.2,1.83c-0.5,0.51-1.08,0.89-1.72,1.15 c-0.64,0.26-1.31,0.4-2,0.4H68.33z M69.65,306.47h3.54c0.83,0,1.56-0.21,2.17-0.63c0.61-0.42,1.08-0.98,1.42-1.67 c0.33-0.69,0.5-1.45,0.5-2.27c0-0.83-0.17-1.6-0.5-2.29c-0.33-0.69-0.81-1.25-1.42-1.67c-0.61-0.42-1.33-0.63-2.17-0.63h-3.54 V306.47z"></path> <path class="st2" d="M87.99,307.72v-11.66h1.32v11.66H87.99z"></path> <path class="st2" d="M99.44,307.72v-11.66h1.53l7.21,9.81v-9.81h1.32v11.66h-1.53l-7.2-9.85v9.85H99.44z"></path> <path class="st2" d="M124.59,307.86c-1.19,0-2.2-0.27-3.06-0.8c-0.85-0.53-1.51-1.25-1.96-2.16s-0.69-1.91-0.69-3.01 s0.23-2.11,0.7-3.01c0.47-0.9,1.14-1.62,2-2.16c0.86-0.53,1.88-0.8,3.04-0.8c1.26,0,2.35,0.31,3.27,0.93 c0.92,0.62,1.6,1.41,2.03,2.39h-1.44c-0.35-0.62-0.84-1.12-1.47-1.48c-0.63-0.36-1.39-0.55-2.28-0.55c-0.94,0-1.75,0.21-2.43,0.62 c-0.68,0.42-1.2,0.98-1.56,1.68c-0.36,0.71-0.54,1.5-0.54,2.38c0,0.87,0.18,1.66,0.53,2.37c0.35,0.71,0.87,1.27,1.54,1.69 c0.68,0.42,1.48,0.63,2.42,0.63c0.7,0,1.37-0.15,2-0.46c0.63-0.3,1.14-0.74,1.53-1.32c0.39-0.57,0.59-1.27,0.59-2.08h-4.26v-1.2 h5.48v6.2h-1.22v-2.06c-0.25,0.38-0.56,0.73-0.95,1.07c-0.39,0.33-0.85,0.61-1.4,0.82C125.92,307.75,125.3,307.86,124.59,307.86z"></path> <path class="st2" d="M150.66,307.72v-11.66h5.23c0.92,0,1.64,0.16,2.18,0.48c0.53,0.32,0.92,0.71,1.15,1.19 c0.23,0.48,0.35,0.95,0.35,1.42c0,0.75-0.16,1.33-0.48,1.74c-0.32,0.41-0.68,0.7-1.09,0.89c0.33,0.11,0.66,0.27,1,0.5 c0.34,0.23,0.61,0.54,0.84,0.93c0.22,0.39,0.33,0.87,0.33,1.46c0,0.87-0.33,1.6-1,2.18c-0.66,0.59-1.66,0.88-2.99,0.88H150.66z M151.99,301.27h3.91c0.41,0,0.8-0.07,1.15-0.21c0.36-0.14,0.65-0.36,0.87-0.66c0.22-0.3,0.34-0.68,0.34-1.15 c0-0.33-0.07-0.64-0.22-0.93c-0.15-0.29-0.38-0.53-0.7-0.72c-0.32-0.19-0.75-0.28-1.29-0.28h-4.05V301.27z M151.99,306.47h4.35 c0.8,0,1.42-0.17,1.86-0.5c0.44-0.33,0.66-0.81,0.66-1.42c0-0.55-0.21-1.04-0.63-1.45c-0.42-0.42-1.1-0.62-2.03-0.62h-4.21V306.47z "></path> <path class="st2" d="M172.67,307.72v-4.62l-4.9-7.05h1.6l3.95,5.67l3.95-5.67h1.6l-4.88,7.05v4.62H172.67z"></path> <path class="st2" d="M198.65,307.72v-11.66h8.42v1.27h-7.1v4.05h6.32v1.29h-6.32v5.06H198.65z"></path> <path class="st2" d="M213.87,307.72l4.95-11.66h1.66l4.95,11.66h-1.46l-1.43-3.38h-5.78l-1.43,3.38H213.87z M217.27,303.12h4.76 l-2.38-5.69L217.27,303.12z"></path> <path class="st2" d="M234.18,307.72v-11.66h5.58c1.2,0,2.15,0.33,2.86,0.99c0.71,0.66,1.07,1.54,1.07,2.66 c0,0.75-0.14,1.35-0.43,1.8c-0.29,0.45-0.65,0.78-1.08,1.01c-0.43,0.23-0.87,0.4-1.3,0.5l3.06,4.7h-1.57l-2.82-4.47h-4.05v4.47 H234.18z M235.5,301.99h4.03c0.42,0,0.85-0.06,1.29-0.19c0.43-0.13,0.8-0.36,1.1-0.7c0.3-0.33,0.45-0.8,0.45-1.4 c0-0.74-0.25-1.32-0.76-1.75c-0.51-0.43-1.17-0.64-2.01-0.64h-4.1V301.99z"></path> <path class="st2" d="M253.24,307.72v-11.66h1.53l4.18,5.53l4.1-5.53h1.53v11.66h-1.32v-9.65l-4.32,5.55l-4.39-5.55v9.65H253.24z"></path> <path class="st2" d="M274.71,307.72v-11.66h1.32v11.66H274.71z"></path> <path class="st2" d="M286.17,307.72v-11.66h1.53l7.2,9.81v-9.81h1.32v11.66h-1.53l-7.2-9.85v9.85H286.17z"></path> <path class="st2" d="M311.32,307.86c-1.19,0-2.2-0.27-3.06-0.8c-0.85-0.53-1.51-1.25-1.96-2.16c-0.46-0.9-0.69-1.91-0.69-3.01 s0.23-2.11,0.7-3.01s1.14-1.62,2-2.16c0.86-0.53,1.88-0.8,3.04-0.8c1.26,0,2.35,0.31,3.27,0.93c0.92,0.62,1.6,1.41,2.04,2.39h-1.45 c-0.35-0.62-0.84-1.12-1.47-1.48c-0.63-0.36-1.39-0.55-2.28-0.55c-0.94,0-1.75,0.21-2.43,0.62c-0.68,0.42-1.2,0.98-1.56,1.68 c-0.36,0.71-0.54,1.5-0.54,2.38c0,0.87,0.18,1.66,0.53,2.37c0.35,0.71,0.87,1.27,1.54,1.69c0.68,0.42,1.48,0.63,2.42,0.63 c0.7,0,1.37-0.15,2-0.46c0.63-0.3,1.14-0.74,1.53-1.32c0.39-0.57,0.59-1.27,0.59-2.08h-4.26v-1.2h5.48v6.2h-1.22v-2.06 c-0.25,0.38-0.56,0.73-0.95,1.07c-0.39,0.33-0.85,0.61-1.4,0.82C312.65,307.75,312.02,307.86,311.32,307.86z"></path> </g> </svg> 